<?xml version="1.0" encoding="UTF-8"?>
<svg id="Capa_1" data-name="Capa 1" xmlns="http://www.w3.org/2000/svg" viewBox="0 0 503.51 51.69">
  <defs>
    <style>
      .cls-1 {
        fill: #1d1d1b;
      }
    </style>
  </defs>
  <g>
    <path class="cls-1" d="m24.13,0C37.02,0,44.08,8.09,44.08,12.89c0,3.15-1.71,5.07-5.07,5.07-6.51,0-4.59-8.91-14.88-8.91-7.06,0-12.89,6.1-12.89,16.8,0,8.98,3.56,16.79,13.3,16.79,8.84,0,8.64-9.46,14.05-9.46,2.74,0,5.48,1.58,5.48,4.32,0,7.13-8.64,14.19-19.54,14.19C9.12,51.69,0,42.84,0,25.84,0,11.93,8.23,0,24.13,0Z"/>
    <path class="cls-1" d="m83.77,46.41c0,3.02-1.37,5-4.52,5s-4.52-1.99-4.52-5v-1.3h-.14c-2.81,3.7-6.44,6.31-12.13,6.31-6.03,0-12.61-3.02-12.61-13.16v-19.47c0-2.67,1.1-5,5-5s5,2.33,5,5v17.48c0,4.04,1.99,6.92,6.31,6.92,3.5,0,7.61-2.88,7.61-7.88v-16.52c0-2.67,1.1-5,5-5s5,2.33,5,5v27.63Z"/>
    <path class="cls-1" d="m100.22,34.48c0,5.28,3.43,9.12,9.25,9.12,7.54,0,7.54-4.94,11.59-4.94,2.4,0,4.11,2.06,4.11,3.91,0,6.03-9.67,8.84-15.7,8.84-13.98,0-19.26-9.46-19.26-18.17,0-11.65,7.06-19.47,18.92-19.47s18.1,8.16,18.1,16.38c0,3.43-1.03,4.32-4.39,4.32h-22.62Zm17.55-5.76c-.55-4.59-3.98-7.95-8.43-7.95-5,0-8.02,3.09-9.12,7.95h17.55Z"/>
    <path class="cls-1" d="m133.67,18.78c0-3.02,1.37-5,4.52-5s4.52,1.99,4.52,5v1.3h.14c2.81-3.7,6.44-6.31,12.13-6.31,6.03,0,12.61,3.02,12.61,13.16v19.47c0,2.67-1.1,5-5,5s-5-2.33-5-5v-17.48c0-4.04-1.99-6.92-6.31-6.92-3.5,0-7.61,2.88-7.61,7.88v16.52c0,2.67-1.1,5-5,5s-5-2.33-5-5v-27.63Z"/>
    <path class="cls-1" d="m178.16,21.25h-1.71c-2.81,0-3.98-1.1-3.98-3.29s1.17-3.29,3.98-3.29h1.71v-6.1c0-3.29,1.99-5,5-5s5,1.71,5,5v6.1h3.02c2.95,0,4.52.89,4.52,3.29s-1.58,3.29-4.52,3.29h-3.02v20.02c0,1.51.82,2.33,2.6,2.33h1.44c2.19,0,3.5,1.23,3.5,3.36,0,2.88-2.47,4.46-7.27,4.46-7.27,0-10.28-3.02-10.28-8.91v-21.25Z"/>
    <path class="cls-1" d="m234.16,40.86c0,4.18,1.03,5.14,1.03,6.72,0,2.26-2.12,3.84-4.52,3.84-4.32,0-5.76-2.74-5.9-5.83-3.91,4.32-8.43,5.83-13.71,5.83-5.69,0-11.31-3.91-11.31-10.21,0-8.29,6.31-10.63,13.98-11.52l6.1-.69c2.4-.27,4.32-.82,4.32-3.7s-2.95-4.11-6.31-4.11c-7.4,0-7.61,5.48-11.58,5.48-2.54,0-4.25-1.78-4.25-3.84,0-3.98,5.62-9.05,15.9-9.05,9.6,0,16.25,3.09,16.25,10.28v16.79Zm-10.01-7.2c-1.1,1.03-3.15,1.37-4.32,1.58l-3.63.55c-4.18.62-6.44,1.92-6.44,4.93,0,2.26,2.12,4.11,5.55,4.11,5.48,0,8.84-3.57,8.84-7.27v-3.91Z"/>
    <path class="cls-1" d="m256.23,13.78c7.61,0,15.29,3.02,15.29,7.61,0,2.33-1.58,4.39-4.18,4.39-3.91,0-4.04-4.59-10.35-4.59-3.5,0-5.76.96-5.76,3.08,0,2.33,2.26,2.88,5.35,3.56l4.18.96c5.69,1.3,12.48,3.7,12.48,10.69,0,8.16-7.88,11.93-15.42,11.93-9.05,0-16.59-4.04-16.59-8.98,0-2.19,1.23-4.18,4.04-4.18,4.32,0,4.73,6.17,12.13,6.17,3.56,0,5.83-1.58,5.83-3.63,0-2.54-2.19-2.95-5.76-3.84l-5.9-1.44c-5.83-1.44-10.35-3.84-10.35-10.56,0-8.16,8.09-11.17,15.01-11.17Z"/>
  </g>
  <g>
    <path class="cls-1" d="m317.88,0c12.89,0,19.95,8.09,19.95,12.89,0,3.15-1.71,5.07-5.07,5.07-6.51,0-4.59-8.91-14.88-8.91-7.06,0-12.89,6.1-12.89,16.8,0,8.98,3.56,16.79,13.3,16.79,8.84,0,8.64-9.46,14.05-9.46,2.74,0,5.48,1.58,5.48,4.32,0,7.13-8.64,14.19-19.54,14.19-15.42,0-24.54-8.84-24.54-25.84,0-13.92,8.23-25.84,24.13-25.84Z"/>
    <path class="cls-1" d="m344.13,5.28c0-3.29,1.99-5,5-5s5,1.71,5,5v41.13c0,3.29-1.99,5-5,5s-5-1.71-5-5V5.28Z"/>
    <path class="cls-1" d="m395.89,40.86c0,4.18,1.03,5.14,1.03,6.72,0,2.26-2.12,3.84-4.52,3.84-4.32,0-5.76-2.74-5.9-5.83-3.91,4.32-8.43,5.83-13.71,5.83-5.69,0-11.31-3.91-11.31-10.21,0-8.29,6.31-10.63,13.98-11.52l6.1-.69c2.4-.27,4.32-.82,4.32-3.7s-2.95-4.11-6.31-4.11c-7.4,0-7.61,5.48-11.58,5.48-2.54,0-4.25-1.78-4.25-3.84,0-3.98,5.62-9.05,15.9-9.05,9.6,0,16.25,3.09,16.25,10.28v16.79Zm-10.01-7.2c-1.1,1.03-3.15,1.37-4.32,1.58l-3.63.55c-4.18.62-6.44,1.92-6.44,4.93,0,2.26,2.12,4.11,5.55,4.11,5.48,0,8.84-3.57,8.84-7.27v-3.91Z"/>
    <path class="cls-1" d="m405.07,18.44c0-3.02,1.99-4.66,4.52-4.66s4.52,1.65,4.52,4.66v3.84h.14c1.17-4.18,3.43-8.5,8.29-8.5,3.15,0,5.48,2.06,5.48,4.87,0,3.7-2.47,5-4.94,5h-1.78c-4.04,0-6.24,2.81-6.24,11.11v11.65c0,2.67-1.1,5-5,5s-5-2.33-5-5v-27.97Z"/>
    <path class="cls-1" d="m464.44,40.86c0,4.18,1.03,5.14,1.03,6.72,0,2.26-2.12,3.84-4.52,3.84-4.32,0-5.76-2.74-5.9-5.83-3.91,4.32-8.43,5.83-13.71,5.83-5.69,0-11.31-3.91-11.31-10.21,0-8.29,6.31-10.63,13.98-11.52l6.1-.69c2.4-.27,4.32-.82,4.32-3.7s-2.95-4.11-6.31-4.11c-7.4,0-7.61,5.48-11.58,5.48-2.54,0-4.25-1.78-4.25-3.84,0-3.98,5.62-9.05,15.9-9.05,9.6,0,16.25,3.09,16.25,10.28v16.79Zm-10.01-7.2c-1.1,1.03-3.15,1.37-4.32,1.58l-3.63.55c-4.18.62-6.44,1.92-6.44,4.93,0,2.26,2.12,4.11,5.55,4.11,5.48,0,8.84-3.57,8.84-7.27v-3.91Z"/>
    <path class="cls-1" d="m486.51,13.78c7.61,0,15.29,3.02,15.29,7.61,0,2.33-1.58,4.39-4.18,4.39-3.91,0-4.04-4.59-10.35-4.59-3.5,0-5.76.96-5.76,3.08,0,2.33,2.26,2.88,5.35,3.56l4.18.96c5.69,1.3,12.48,3.7,12.48,10.69,0,8.16-7.88,11.93-15.42,11.93-9.05,0-16.59-4.04-16.59-8.98,0-2.19,1.23-4.18,4.04-4.18,4.32,0,4.73,6.17,12.13,6.17,3.56,0,5.83-1.58,5.83-3.63,0-2.54-2.19-2.95-5.76-3.84l-5.9-1.44c-5.83-1.44-10.35-3.84-10.35-10.56,0-8.16,8.09-11.17,15.01-11.17Z"/>
  </g>
</svg>