<?xml version="1.0" encoding="UTF-8"?>
<svg id="Capa_1" data-name="Capa 1" xmlns="http://www.w3.org/2000/svg" viewBox="0 0 180.43 134">
  <defs>
    <style>
      .cls-1 {
        fill: #fff;
      }
    </style>
  </defs>
  <path class="cls-1" d="m73.57,44.99H15.85c-1.36,0-2.47-1.53-2.47-3.41s1.11-3.41,2.47-3.41h57.72c1.36,0,2.47,1.53,2.47,3.41s-1.11,3.41-2.47,3.41Z"/>
  <path class="cls-1" d="m90.51,66.05H16.54c-1.75,0-3.17-1.53-3.17-3.41s1.42-3.41,3.17-3.41h73.97c1.75,0,3.17,1.53,3.17,3.41s-1.42,3.41-3.17,3.41Z"/>
  <path class="cls-1" d="m54.91,87.11H16.14c-.92,0-1.66-1.53-1.66-3.41s.74-3.41,1.66-3.41h38.78c.92,0,1.66,1.53,1.66,3.41s-.74,3.41-1.66,3.41Z"/>
  <path class="cls-1" d="m67.61,108.17H16.66c-1.2,0-2.18-1.53-2.18-3.41s.98-3.41,2.18-3.41h50.96c1.2,0,2.18,1.53,2.18,3.41s-.98,3.41-2.18,3.41Z"/>
  <path class="cls-1" d="m97.76,102.66c-.25-1.56-1.06-2.76-2.34-3.64-.55-.37-1.13-.69-1.74-.95-.88-.38-1.79-.65-2.71-.92-.02,0-2.65-.7-2.65-.7-.02,0-1.51-.45-2.19-.8-.39-.21-.75-.46-1.02-.82-.4-.52-.49-1.12-.4-1.74.17-1.18.9-1.92,1.95-2.38.52-.23,1.08-.33,1.65-.38,0,0,2.02.12,2.35.12.1.02.17.04.25.06.88.18,1.72.46,2.51.91.39.22.77.48,1.15.72.5.31,1.01.32,1.51.04.5-.28.81-.72.83-1.31.01-.44-.15-.84-.5-1.13-.28-.23-.57-.45-.87-.65-1.44-.97-3.03-1.48-4.75-1.65-.12-.01-.16-.03-.16-.16,0-.7,0-1.4-.01-2.1-.01-.53-.39-.94-.91-1.04-.05,0-.09-.04-.14-.06h-.26s-.08.06-.13.07c-.28.05-.49.21-.67.43-.19.25-.24.55-.24.85,0,.6,0,1.21,0,1.81,0,.11-.03.14-.13.15-.78.11-1.55.24-2.31.48-1.37.44-2.52,1.17-3.41,2.29-1.05,1.33-1.39,2.85-1.17,4.51.21,1.54,1.01,2.71,2.29,3.56.67.45,1.4.81,2.16,1.07.8.28,1.61.51,2.41.76.1.03,2.8.75,2.8.85.56.2,1.13.4,1.68.64.58.25,1.07.64,1.41,1.19.44.73.48,1.52.27,2.32-.28,1.03-.99,1.69-1.92,2.13-.5.24-1.04.34-1.59.43-.04,0-.15.04-.2.04,0,0-2.05.07-2.31-.05-.39-.08-.77-.14-1.14-.23-1.25-.33-2.41-.87-3.44-1.67-.14-.11-.3-.22-.45-.31-.62-.39-1.11-.4-1.67,0-.91.66-.9,1.79-.18,2.42,1.07.94,2.28,1.65,3.63,2.12.85.29,1.72.51,2.62.57.22.01.43.03.66.05v.17c0,.55,0,1.1,0,1.65,0,.12,0,.25.03.37.14.86,1.07,1.28,1.8.8.36-.24.5-.59.51-1,.01-.63,0-1.27,0-1.9,0-.04,0-.07,0-.12.07,0,.12-.01.18-.02.06,0,.11-.02.17-.02,1.19-.13,2.34-.39,3.41-.95,1.86-.96,2.93-2.5,3.3-4.53.14-.77.14-1.55.01-2.34Z"/>
  <g>
    <path class="cls-1" d="m180.24,8.77c-.06-3.72-2.59-8.07-7.32-8.53-1.3-.13-2.62-.21-3.93-.21-29.12-.02-58.24-.02-87.35-.02-14.56,0-29.12-.03-43.68.03-6.57.03-9.63,3.2-9.65,9.72,0,1.74,0,3.49,0,5.54-1.85,0-3.5-.11-5.14.02-3.73.29-7.48-.14-11.15,1.52-3.32,1.5-6,3.54-8.22,6.28C.94,26.65.07,30.76.08,35.23c.05,29.09,0,58.17,0,87.26,2.45-.68,4.93-1.24,7.42-1.68.03-4.1-.05-8.2-.05-12.3-.02-24.59-.03-49.18-.04-73.77,0-6.85,5.01-11.93,11.85-11.93,31.56,0,63.12-.01,94.67-.01.68,0,1.36,0,2.34,0-.35.73-.54,1.22-.8,1.66-1.9,3.13-2.6,6.58-2.67,10.17-.14,8.02-.28,16.03-.28,24.05-.01,21.04.05,42.08.08,63.12,2.76.77,5.31,1.62,7.96,2.68l.16-63.32c1.47,0,2.78,0,4.08,0,12.22-.05,24.44-.04,36.66-.2,2.24-.03,4.63-.38,6.69-1.22,8.02-3.26,11.79-9.78,12.07-18.03.37-10.97.2-21.96.03-32.94Zm-36.9,44.78c-7.01.06-14.02.08-21.02.18-1.27.02-1.66-.33-1.65-1.63.07-6.31.21-12.63-.02-18.94-.2-5.67,4.65-9.85,9.86-10.31,6.95-.61,12.25,4.38,12.29,11.34.01,2.86.08,5.74-.16,8.59-.28,3.3.68,6.22,2.13,9.06.19.38.37.77.69,1.45-.91.12-1.51.26-2.12.27Zm22.15-.58c-5.12,1.94-11.53.49-14.31-5.32-.91-1.9-1.21-3.86-1.18-5.92.04-2.72.03-5.44.03-8.16-.02-7.46-3.64-12.6-10.1-16.1-3.83-2.08-7.93-2.14-12.06-2.15-28.77-.03-57.54-.02-86.31-.02-1.36,0-2.73-.03-4.09,0-.92.03-1.32-.3-1.31-1.26.03-1.75-.03-3.5-.08-5.24-.02-.86.34-1.26,1.23-1.16.24.03.49,0,.73,0,44.01,0,88.02,0,132.03,0h2.03c0,.76,0,1.29,0,1.83,0,11.13-.08,22.25.04,33.38.05,4.99-2.33,8.49-6.65,10.12Z"/>
    <path class="cls-1" d="m87.83,134c-3.2,0-5.22-1.79-6.71-3.13-1.27-1.13-1.99-1.72-3.15-1.79-1.07-.06-1.71.36-3.06,1.33-1.72,1.22-4.09,2.9-7.87,2.71-3.11-.16-4.9-1.47-6.21-2.43-.96-.71-1.36-1-2.32-1.02-1.14.02-1.76.38-3.05,1.29-1.57,1.11-3.72,2.63-7.13,2.45-3.36-.17-5.33-1.9-6.63-3.04-1.05-.92-1.45-1.24-2.29-1.28-.96-.06-1.53.31-2.93,1.36-1.67,1.26-3.95,2.98-7.56,2.66-3.03-.27-4.84-1.78-6.16-2.89-1.12-.94-1.42-1.12-2.08-1.12-.34,0-.36,0-1.14.54-.9.61-5.44,2.78-7.83,3.04-5.88.65-9.07,1.13-10.59-2.89-1.44-3.8-1.09-7.28-1.04-13.78l7.39.16c0,3.37-.11,8.66,1.19,9.34s4.26.11,4.98-.38c1.05-.71,4.44-3.01,6.87-3.07,3.35-.12,5.41,1.63,6.77,2.77,1.07.89,1.51,1.21,2.26,1.28.85.07,1.35-.25,2.7-1.27,1.66-1.25,3.92-2.96,7.53-2.77,3.33.17,5.28,1.89,6.58,3.02,1.06.93,1.47,1.25,2.34,1.3.9.05,1.4-.25,2.7-1.17,1.59-1.12,3.76-2.67,7.27-2.58,3.17.07,5,1.4,6.33,2.38.96.7,1.4,1.03,2.41,1.08,1.29.08,1.97-.39,3.42-1.41,1.67-1.19,3.96-2.81,7.52-2.62,3.68.2,5.86,2.14,7.45,3.56,1.31,1.17,1.66,1.37,2.16,1.34.6-.05,1.02-.41,2.15-1.65,1.35-1.48,3.39-3.71,6.92-3.82,3.22-.11,5.29,1.64,6.78,2.91,1.15.98,1.86,1.55,2.92,1.75,2.09.4,4.44.06,5.35-1.88.65-1.41.4-3.36.54-6.1l7.93-2c0,4.89.44,8.65-.86,11.17-2.67,5.15-9.06,6.72-14.27,5.73-2.95-.56-4.81-2.15-6.17-3.32-1.15-.98-1.5-1.24-1.97-1.23-.49.02-.87.36-1.95,1.54-1.33,1.46-3.35,3.66-6.82,3.92-.23.02-.45.03-.67.03Z"/>
  </g>
</svg>